PathFileType	4	(X/Y/Z)	./resultDataOpenSim/trcMotMarkerGrf/sub10/qtm-01-05.trc
DataRate	CameraRate	NumFrames	NumMarkers	Units	OrigDataRate	OrigDataStartFrame	OrigNumFrames
250.000000	250.000000	8	24	m	250.000000	122	487
Frame#	Time	L.Toe.Tip			R.Toe.Tip			L.Ankle.Lat			R.Ankle.Lat			L.Ankle.Med			R.Ankle.Med			L.Heel			R.Heel			L.Knee.Lat			R.Knee.Lat			L.Knee.Med			R.Knee.Med			L.Thigh.Upper			R.Thigh.Upper			L.ASIS			R.ASIS			V.Sacral			L.Acromium			R.Acromium			C7			L.Elbow			R.Elbow			L.Wrist.Lat			R.Wrist.Lat
		X1	Y1	Z1	X2	Y2	Z2	X3	Y3	Z3	X4	Y4	Z4	X5	Y5	Z5	X6	Y6	Z6	X7	Y7	Z7	X8	Y8	Z8	X9	Y9	Z9	X10	Y10	Z10	X11	Y11	Z11	X12	Y12	Z12	X13	Y13	Z13	X14	Y14	Z14	X15	Y15	Z15	X16	Y16	Z16	X17	Y17	Z17	X18	Y18	Z18	X19	Y19	Z19	X20	Y20	Z20	X21	Y21	Z21	X22	Y22	Z22	X23	Y23	Z23	X24	Y24	Z24

122	0.484	-0.39620189	0.061956997	-0.13934361	-0.74239135	0.03914972	-0.0018969038	-0.5302851	0.08282511	-0.15345493	-0.88168697	0.053934947	0.034725149	-0.51153595	0.10647754	-0.072038799	-0.86452004	0.082647832	-0.048668129	-0.58594151	0.049564742	-0.10076541	-0.93413957	0.031635321	-0.014411873	-0.51467847	0.47517255	-0.1790002	-0.77794442	0.44422824	0.086026726	-0.48781596	0.45505504	-0.059847482	-0.76935223	0.44971927	-0.044061225	-0.66509317	0.82520325	-0.23354878	-0.72820517	0.85683079	0.14439312	-0.62713956	0.9388205	-0.16611742	-0.64779933	0.94583166	0.080117343	-0.82927854	0.94206281	-0.061125739	-0.70748903	1.4080649	-0.21075345	-0.71774485	1.4028373	0.11696455	-0.79687487	1.4350132	-0.049698945	-0.81698514	1.0816439	-0.23947835	-0.7533224	1.053693	0.19665588	-0.72665185	0.85792931	-0.27510819	-0.56498368	0.89240379	0.21353228
123	0.488	-0.37689106	0.064458154	-0.13877626	-0.74233883	0.039107992	-0.0019139355	-0.51153804	0.080865471	-0.15302338	-0.88146884	0.054046682	0.034500044	-0.49374687	0.10529963	-0.071471628	-0.86422429	0.082601151	-0.048782619	-0.56646618	0.046135115	-0.10033421	-0.93411192	0.03176502	-0.014603569	-0.50861868	0.4736879	-0.17882619	-0.77515583	0.44359059	0.085643182	-0.48189208	0.45396651	-0.059790506	-0.7663489	0.44912599	-0.044444829	-0.6584049	0.82453287	-0.23364102	-0.7244252	0.85598963	0.14406146	-0.62063637	0.93796104	-0.16591655	-0.64302957	0.94469534	0.080453264	-0.82320526	0.94098466	-0.062393751	-0.70197945	1.4071981	-0.21048371	-0.71232658	1.4018968	0.11723267	-0.79134222	1.43407	-0.049349377	-0.81220552	1.0811242	-0.23869557	-0.74472375	1.052325	0.1971968	-0.723313	0.8570822	-0.27515363	-0.55397172	0.89367134	0.21332842
124	0.492	-0.35774115	0.067230672	-0.13802155	-0.74226377	0.039025504	-0.0019475898	-0.4927884	0.079192912	-0.15261174	-0.8811298	0.054152605	0.034228928	-0.47598454	0.10446511	-0.070970663	-0.86391537	0.082552566	-0.048956353	-0.54712729	0.043222855	-0.099955211	-0.93408252	0.031897894	-0.014832352	-0.50254001	0.47203658	-0.17875519	-0.77231436	0.44291569	0.085222187	-0.47611325	0.45271055	-0.059785527	-0.76321776	0.44845211	-0.044850247	-0.65167813	0.82380475	-0.23371276	-0.72069884	0.85521194	0.14373457	-0.6138088	0.93703753	-0.16565661	-0.63800548	0.94360358	0.080766655	-0.81701299	0.93983001	-0.063581973	-0.69643772	1.4062715	-0.21023057	-0.70685668	1.4008815	0.11748542	-0.78581224	1.4330737	-0.049077	-0.80765222	1.0805543	-0.23824618	-0.73611168	1.0509305	0.19770027	-0.71989161	0.85621274	-0.27523947	-0.54302253	0.89493158	0.21308699
125	0.496	-0.33879419	0.070273882	-0.13706712	-0.74217737	0.038888174	-0.0019986482	-0.47405293	0.077819415	-0.15221804	-0.88139574	0.054173137	0.03401581	-0.45833369	0.10391613	-0.070498582	-0.86361928	0.082482997	-0.049248576	-0.527811	0.040631483	-0.099800255	-0.93405398	0.03204097	-0.015132187	-0.49642207	0.4702314	-0.17877041	-0.76949374	0.44219589	0.084753175	-0.47045095	0.45128522	-0.059801951	-0.75996544	0.44770066	-0.045265484	-0.64491581	0.82301444	-0.23376585	-0.7169923	0.85443332	0.14342516	-0.60683018	0.93604119	-0.16538301	-0.63298242	0.94250255	0.081045867	-0.81091841	0.93864772	-0.064880353	-0.69086565	1.4052928	-0.20999649	-0.70133087	1.3997937	0.11772459	-0.78035506	1.4320268	-0.049117529	-0.8032929	1.0799423	-0.23807452	-0.72748778	1.0495098	0.19816551	-0.71637141	0.85532666	-0.27537054	-0.53214046	0.89617037	0.21280584
126	0.5	-0.32009764	0.073570781	-0.13592027	-0.74208151	0.038734753	-0.0020591018	-0.45539364	0.076756622	-0.151861	-0.88247366	0.054054563	0.033890684	-0.44093872	0.10357424	-0.070008827	-0.86334017	0.082380858	-0.0496676	-0.50830371	0.038122127	-0.1000053	-0.93402706	0.032203065	-0.015503664	-0.4902857	0.46830182	-0.17884521	-0.76672279	0.44142782	0.084226519	-0.46488776	0.44969069	-0.059821914	-0.7566023	0.44688089	-0.045685242	-0.63813884	0.82215989	-0.23381106	-0.71327229	0.85360958	0.14312618	-0.59993032	0.93498107	-0.16514613	-0.62808866	0.94135809	0.081283117	-0.80532328	0.93757564	-0.066644535	-0.6852577	1.404267	-0.20977829	-0.69575111	1.3986427	0.11795226	-0.77502792	1.4309289	-0.049644342	-0.7989779	1.0792924	-0.23797002	-0.71885687	1.0480654	0.19859689	-0.71275569	0.85442688	-0.27554568	-0.5213442	0.89737671	0.21250007
127	0.504	-0.30168812	0.077098873	-0.13459491	-0.74197092	0.03862122	-0.0021210808	-0.43689218	0.076029162	-0.1515696	-0.88375218	0.053877816	0.033790779	-0.42387021	0.10343192	-0.069521122	-0.86306091	0.082257233	-0.050153961	-0.48866681	0.035730126	-0.10048322	-0.93399801	0.032393176	-0.015897654	-0.48415884	0.46628379	-0.17896109	-0.76393091	0.44062867	0.083663601	-0.45941255	0.44793768	-0.059835379	-0.75313299	0.44600557	-0.046105952	-0.63136034	0.82124992	-0.23385294	-0.7095115	0.8527256	0.14281056	-0.59314922	0.9338764	-0.16493801	-0.62329994	0.94017636	0.081484412	-0.80058381	0.93678455	-0.069187135	-0.67961173	1.4031914	-0.20956658	-0.69013246	1.397437	0.11817186	-0.76978067	1.4297776	-0.050454154	-0.79458078	1.0786043	-0.23776482	-0.7102238	1.0466004	0.19899876	-0.70906102	0.85351318	-0.27575943	-0.510647	0.89854567	0.21217571
128	0.508	-0.28358755	0.080844559	-0.13309274	-0.74184458	0.03855694	-0.0021831819	-0.41861928	0.075671153	-0.15136686	-0.88453093	0.05381013	0.033653581	-0.40710498	0.10355069	-0.069114521	-0.86275593	0.082139778	-0.05062169	-0.4692145	0.033688343	-0.10103435	-0.93396137	0.032616734	-0.016258329	-0.47802244	0.46421607	-0.17912054	-0.76099652	0.43983044	0.083124748	-0.45402056	0.44605176	-0.059835731	-0.74956127	0.44508775	-0.046519921	-0.624548	0.82029921	-0.23388384	-0.70570106	0.85179835	0.14245046	-0.58638954	0.93274284	-0.16471665	-0.61855282	0.93898117	0.081662917	-0.79646546	0.93621132	-0.072402321	-0.67393383	1.4020669	-0.20935624	-0.68448525	1.3961851	0.11838226	-0.76449789	1.4285756	-0.05105825	-0.79007231	1.0778831	-0.23742507	-0.7015895	1.0451168	0.19937139	-0.70530251	0.85258755	-0.27600437	-0.50003281	0.89968141	0.21180796
129	0.512	-0.26583389	0.084812834	-0.13139486	-0.74171012	0.038512439	-0.0022465215	-0.40061229	0.075698292	-0.1512563	-0.88470801	0.053921681	0.033463831	-0.39062505	0.10398235	-0.068851138	-0.86241502	0.082047837	-0.051030926	-0.45016524	0.032120712	-0.101579	-0.93391423	0.032871022	-0.01657055	-0.47181895	0.46213753	-0.17933457	-0.75786877	0.43905166	0.082655534	-0.44870887	0.44405492	-0.05981956	-0.74590067	0.44413799	-0.046920579	-0.61761396	0.81931816	-0.23388201	-0.70185207	0.85085747	0.14204001	-0.57957107	0.93158626	-0.16445358	-0.61380745	0.93778806	0.08183012	-0.79193717	0.9354326	-0.075701308	-0.66823097	1.4009025	-0.20914699	-0.67880515	1.3948925	0.11857709	-0.75915144	1.4273331	-0.051180887	-0.78548534	1.0771389	-0.23700123	-0.69295154	1.0436152	0.19970939	-0.70148489	0.85165485	-0.27627659	-0.48947193	0.90079475	0.21136688
